<svg xmlns="http://www.w3.org/2000/svg" height="512" width="512"  fill-rule="evenodd" xmlns:v="https://vecta.io/nano"><g fill="#5b8baa"><path d="M499.176 257.116c0-133.735-109.178-242.148-243.857-242.148S11.46 123.38 11.46 257.116 120.64 499.265 255.318 499.265s243.857-108.413 243.857-242.148"/><path d="M222.74 380.253c-23.063 35.528-54.012 62.87-89.004 81.61 0 .046-.008.09-.008.137 0 1.563.13 3.088.183 4.636 23.888 13.97 49.244 23.5 75.104 28.7 39.4-18.682 74.255-48.04 99.657-87.166 37.147-57.223 46.875-124.144 32.592-185.63-28.458 4.22-55.31 13.3-79.666 26.415.06 45.044-12.448 90.62-38.86 131.3"/></g><path d="M160.582 479.926c-9.033-3.916-17.973-8.203-26.67-13.287-.053-1.548-.183-3.08-.183-4.644 0-.046.008-.083.008-.13 26.876-14.395 51.322-33.904 71.688-58.262-71.053-20.67-131.798-73.1-159.866-147.204-10.385-27.424-15.39-55.538-15.612-83.22 3.99-11.26 8.9-22.165 14.52-32.72l-1.077-3.073C23.106 172.71 11.46 213.55 11.46 257.113c0 100.27 61.37 186.3 148.847 223.08l.275-.266z" fill="#fefefe"/><path d="M308.67 408.173c-25.4 39.125-60.27 68.484-99.68 87.15 40.402 8.127 81.92 5.85 120.65-6.048a242.21 242.21 0 0 0 57.986-62.057c40.96-63.096 48.648-137.992 27.488-204.382-12.235-1.897-24.744-3-37.53-3-12.34 0-24.47.933-36.32 2.694 14.3 61.48 4.555 128.408-32.592 185.63" fill="#e7c162"/><path d="M253.778 253.402c36.3-21.293 78.603-33.548 123.812-33.548 44.254 0 85.687 11.807 121.46 32.273-.596-29.298-6.427-57.314-16.613-83.175-37.162-22.765-80.904-35.945-127.77-35.945-59.186 0-113.435 20.95-155.67 55.766 14.558 25.064 33.21 46.766 54.784 64.63" fill="#5b8baa"/><path d="M198.996 188.776C241.232 153.954 295.48 133 354.66 133c46.882 0 90.624 13.188 127.778 35.968-15.008-38.116-39.44-71.542-70.488-97.4-26.173-9.538-54.44-14.774-83.945-14.774-59.912 0-114.74 21.5-157.192 57.08 2.56 13.1 6.113 26.15 11.004 39.057 4.776 12.62 10.607 24.533 17.18 35.847" fill="#e7c162"/><path d="M391.284 56.792c25.577 38.305 40.51 84.222 40.51 133.63 0 133.735-109.178 242.148-243.857 242.148-49.748 0-95.996-14.827-134.564-40.233 43.665 65.388 118.417 108.527 203.34 108.527 134.68 0 243.857-108.413 243.857-242.148 0-84.336-43.436-158.564-109.285-201.923" fill="#010202" opacity=".3"/><g fill="#2e2e30"><path d="M255.32 26.353c-128.145 0-232.395 103.52-232.395 230.766 0 127.24 104.25 230.766 232.395 230.766S487.715 384.358 487.715 257.12c0-127.247-104.25-230.766-232.395-230.766m0 484.296C114.536 510.65.001 396.91.001 257.12.001 117.32 114.536 3.588 255.32 3.588S510.64 117.32 510.64 257.12c0 139.8-114.535 253.53-255.32 253.53"/><path d="M152.888 463.977c17.43 8.772 35.748 15.283 54.64 19.41 37.284-18.432 68.868-46.5 91.5-81.384 32.31-49.77 43.963-108.46 33.265-166.372-20.656 4.037-40.54 10.828-59.33 20.253-1.207 46.394-15.177 91.393-40.6 130.533-20.297 31.264-47.563 57.838-79.482 77.56m56.13 42.737a11.53 11.53 0 0 1-2.277-.228c-27.572-5.54-54.027-15.647-78.642-30.042a11.36 11.36 0 0 1-5.632-9.371l-.07-1.434c-.07-1.207-.13-2.42-.13-3.642 0-4.18 2.315-8.165 6.022-10.153 34.426-18.432 63.755-45.317 84.816-77.757 24.286-37.395 37.086-80.67 37.032-125.122-.008-4.18 2.293-8.036 6-10.024a254.48 254.48 0 0 1 83.441-27.659c5.99-.88 11.516 2.914 12.86 8.696 15.643 67.338 3.515 136.36-34.136 194.357-25.638 39.504-61.723 71.064-104.35 91.264-1.55.736-3.24 1.115-4.937 1.115"/></g><path d="M242.407 342.996c-59.88-24.82-109.744-73.12-134.39-138.197-16.5-43.572-19.456-88.873-11.058-131.428a242.59 242.59 0 0 0-67.019 99.808c.222 27.682 5.235 55.796 15.62 83.22 28.06 74.114 88.805 126.534 159.86 147.212 6.152-7.36 11.967-15.116 17.324-23.357 7.802-12.027 14.252-24.518 19.662-37.258" fill="#e7c162"/><g fill="#2e2e30"><path d="M41.425 175.08c.45 26.422 5.44 52.427 14.863 77.317 25.065 66.17 77.694 116.123 145.095 138.045 4.226-5.388 8.16-10.866 11.723-16.353 5.12-7.884 9.85-16.368 14.137-25.322-60.416-28.236-106.32-77.552-129.95-139.965-12.494-33-17.874-68.03-15.94-102.912-17.163 20.534-30.743 43.997-39.928 69.2m163.993 239.9c-1.077 0-2.155-.152-3.225-.463C124.346 391.875 63.342 335.7 34.83 260.41c-10.607-28.03-16.117-57.344-16.353-87.136-.008-1.32.206-2.633.65-3.878 14.19-40.028 38.453-76.163 70.167-104.482 3.668-3.278 9.033-3.855 13.32-1.442 4.28 2.413 6.534 7.285 5.586 12.088-8.253 41.895-4.608 85.2 10.553 125.236 22.773 60.122 68.25 106.895 128.07 131.7 2.812 1.16 5.036 3.392 6.2 6.192 1.154 2.792 1.14 5.934-.046 8.726-5.93 13.955-12.853 27.082-20.595 39.004-5.365 8.27-11.47 16.497-18.142 24.464-2.216 2.64-5.464 4.105-8.81 4.105"/><path d="M24.85 227.497a229.3 229.3 0 0 0-1.926 29.617c0 79.525 40.777 152.1 106.55 194.092 20.793-11.29 39.477-25.45 55.747-42.244-69.716-25.49-123.98-78.827-150.4-148.555-4.088-10.798-7.413-21.786-9.98-32.9M160.31 491.575c-1.513 0-3.034-.296-4.47-.903C61.173 450.87 0 359.2 0 257.113c0-43.92 11.562-87.272 33.433-125.365 2.216-3.878 6.465-6.162 11.004-5.7 4.463.4 8.284 3.37 9.774 7.58l1.077 3.08c1.055 2.982.8 6.268-.68 9.068-5.235 9.834-9.66 19.69-13.182 29.306.45 26.422 5.44 52.42 14.863 77.31 25.952 68.537 81.477 119.666 152.354 140.29a11.4 11.4 0 0 1 7.733 7.596c1.13 3.665.32 7.64-2.14 10.593-17.492 20.928-38.04 38.723-61.226 53.042 3.76 1.836 7.772 3.68 12.15 5.577 3.5 1.518 6.006 4.66 6.694 8.393.688 3.726-.543 7.55-3.278 10.2l-.283.266a11.52 11.52 0 0 1-7.986 3.225"/></g><path d="M181.815 152.926C166.24 111.8 162.787 69.13 169.49 28.676c-27.403 10.866-51.758 26.14-72.55 44.7-8.375 42.547-5.4 87.85 11.08 131.413 24.645 65.077 74.5 113.376 134.39 138.197 11.463-26.99 17.637-55.242 18.837-83.486-34.808-26.574-62.838-62.777-79.43-106.584" fill="#fefefe"/><g fill="#2e2e30"><path d="M107.485 79.326c-7.32 40.718-3.44 82.628 11.272 121.465 21.382 56.494 62.816 101.197 117.363 126.96 7.42-20.253 11.898-41.363 13.358-62.96-35.305-28.32-62.35-65.486-78.397-107.86a251.73 251.73 0 0 1-15.429-109.62c-17.393 8.643-33.525 19.365-48.166 32.015m134.908 275.05c-1.467 0-2.957-.28-4.41-.88-65.704-27.242-115.68-78.622-140.693-144.692-16.66-43.98-20.67-91.56-11.6-137.597.48-2.428 1.735-4.63 3.584-6.275 22.314-19.927 47.868-35.687 75.967-46.827 3.83-1.525 8.207-.873 11.432 1.692 3.225 2.572 4.807 6.67 4.134 10.722a228.99 228.99 0 0 0 11.738 118.399 230.27 230.27 0 0 0 75.684 101.569c2.965 2.26 4.63 5.797 4.47 9.508-1.29 30.216-7.925 59.628-19.74 87.424-1.842 4.348-6.09 6.958-10.57 6.958"/><path d="M214.022 191.452c11.41 17.855 25.195 33.973 41.12 48.087 37.43-20.352 79.59-31.066 122.444-31.066 37.62 0 74.828 8.332 108.773 24.23-2.04-19.206-6.465-37.972-13.236-56.04-35.794-21.126-76.67-32.273-118.463-32.273-50.803 0-100.36 16.65-140.64 47.062m39.753 73.333c-2.62 0-5.227-.888-7.344-2.64-23.078-19.107-42.38-41.88-57.367-67.68-2.79-4.803-1.69-10.904 2.606-14.448 45.683-37.653 103.562-58.39 162.992-58.39 47.333 0 93.59 13.014 133.792 37.645 2.11 1.3 3.744 3.24 4.654 5.54 10.928 27.743 16.79 57.04 17.408 87.1.084 4.105-2.07 7.937-5.624 10.024-3.553 2.094-7.963 2.117-11.562.068-35.175-20.124-75.195-30.755-115.743-30.755-41.525 0-82.325 11.056-117.982 31.97a11.47 11.47 0 0 1-5.831 1.578"/><path d="M183.448 118.3c2.392 10.76 5.387 20.837 9.094 30.6 2.843 7.497 6.213 15.063 10.057 22.583 43.803-32.258 97.28-49.877 152.064-49.877 35.5 0 70.42 7.33 102.622 21.4-13.312-23.174-30.65-44.042-51.17-61.45-25.08-8.893-51.345-13.4-78.107-13.4-52.507 0-103.57 17.756-144.56 50.135m15.543 81.854a11.27 11.27 0 0 1-2.017-.182c-3.332-.592-6.228-2.6-7.917-5.517-7.183-12.384-13.228-25-17.973-37.53-4.837-12.78-8.72-26.536-11.524-40.885-.787-4.052.688-8.2 3.86-10.866C209.385 66.637 267.837 45.412 328 45.412c30.14 0 59.705 5.206 87.888 15.472a11.27 11.27 0 0 1 3.416 1.965c32.753 27.287 58.27 62.557 73.797 101.986 1.803 4.56.46 9.75-3.324 12.885a11.55 11.55 0 0 1-13.365.95c-36.574-22.423-78.68-34.276-121.757-34.276-54.1 0-106.77 18.872-148.35 53.148a11.5 11.5 0 0 1-7.32 2.626M244.6 488.395c26.807 1.442 53.882-1.723 79.75-9.4 21.114-16.117 39.164-35.604 53.653-57.93 36.33-55.963 46.477-124.083 28.244-187.968-17.714-2.23-34.45-2.375-51.246-.766 11.516 63.377-1.33 127.55-36.688 182-19.234 29.64-44.353 54.8-73.713 74.06m12.662 23.106a256.54 256.54 0 0 1-50.535-5.016c-4.83-.97-8.498-4.902-9.094-9.758-.6-4.864 1.98-9.56 6.434-11.663 38.797-18.386 71.642-47.108 94.98-83.06 34.266-52.8 45.3-115.614 31.056-176.905a11.35 11.35 0 0 1 1.696-8.962c1.796-2.626 4.623-4.386 7.787-4.856 25.134-3.733 50.535-3.832 77.297.3 4.302.668 7.848 3.695 9.163 7.816 23.055 72.316 12.563 150.308-28.77 213.98-16.323 25.14-36.75 47.002-60.714 64.97a11.35 11.35 0 0 1-3.523 1.791c-24.584 7.55-50.184 11.352-75.776 11.352"/></g></svg>